<?xml version="1.0" standalone="no"?>
<!DOCTYPE svg PUBLIC "-//W3C//DTD SVG 20010904//EN"
 "http://www.w3.org/TR/2001/REC-SVG-20010904/DTD/svg10.dtd">
<svg version="1.0" xmlns="http://www.w3.org/2000/svg"
 width="44.000000pt" height="25.000000pt" viewBox="0 0 44.000000 25.000000"
 preserveAspectRatio="xMidYMid meet">
<metadata>
Created by potrace 1.10, written by Peter Selinger 2001-2011
</metadata>
<g transform="translate(0.000000,25.000000) scale(0.100000,-0.100000)"
fill="#000000" stroke="none">
<path d="M84 236 c-48 -21 -83 -74 -80 -119 4 -43 26 -71 78 -98 29 -15 59
-19 138 -19 79 0 109 4 138 19 52 27 74 55 78 98 3 46 -32 98 -82 119 -44 19
-227 18 -270 0z m268 -27 c41 -21 58 -42 58 -71 0 -38 -13 -62 -50 -88 -26
-19 -44 -21 -134 -22 -111 0 -151 12 -180 54 -35 49 -17 97 46 129 33 17 226
16 260 -2z"/>
<path d="M98 181 c-11 -11 -18 -33 -18 -57 0 -53 25 -74 89 -74 l49 0 -1 35
c-1 33 -3 35 -34 35 -32 0 -43 -12 -23 -25 21 -13 9 -24 -15 -13 -34 15 -36
73 -3 84 13 4 24 2 26 -5 5 -14 39 -15 47 -1 22 35 -85 54 -117 21z"/>
<path d="M242 188 c-20 -20 -14 -56 11 -63 57 -16 90 -45 47 -42 -11 1 -20 5
-20 9 0 4 -11 8 -25 8 -30 0 -32 -11 -7 -33 22 -20 83 -22 100 -5 27 27 14 55
-34 73 -25 9 -43 20 -39 23 9 9 45 10 45 0 0 -4 9 -8 20 -8 11 0 20 6 20 13 0
24 -23 37 -65 37 -23 0 -46 -5 -53 -12z"/>
</g>
</svg>
